<?xml version="1.0" encoding="utf-8"?>
<!-- Generator: Adobe Illustrator 22.1.0, SVG Export Plug-In . SVG Version: 6.00 Build 0)  -->
<svg version="1.1" id="Layer_1" xmlns="http://www.w3.org/2000/svg" xmlns:xlink="http://www.w3.org/1999/xlink" x="0px" y="0px"
	 viewBox="0 0 344 340" style="enable-background:new 0 0 344 340;" xml:space="preserve">
<style type="text/css">
	.st0{stroke:#000000;stroke-miterlimit:10;}
	.st1{fill:#D7DB21;}
	.st2{fill:#6AADF4;}
	.st3{fill:#172275;}
</style>
<rect x="810.5" y="311.4" style="fill:none;" width="533.5" height="28.2"/>
<text transform="matrix(1 0 0 1 810.5205 332.2412)"><tspan x="0" y="0" class="st0" style="font-family:'Arial-BoldMT'; font-size:29.0555px; letter-spacing:3;">LAVANDERÍA TIPO AMERICA</tspan><tspan x="490.2" y="0" class="st0" style="font-family:'Arial-BoldMT'; font-size:29.0555px; letter-spacing:3;">-</tspan></text>
<g>
	<g>
		<path class="st1" d="M122.2,227.7l9,55.1c-22.8-9.2-41.6-25-55-44.7c3,0.4,6,0.6,9.1,0.6C98.9,238.6,111.6,234.6,122.2,227.7z"/>
		<path class="st1" d="M301.9,192.2c-4.3,14.3-10.5,27.4-18.4,39.1l-12.6-77.7l-3.3-20.4c-1.6-10-11.1-16.8-21-15.1l-46.9,7.6
			l-57.2,9.3c-12-19-33.1-31.6-57.2-31.6c-7.6,0-14.9,1.3-21.7,3.6C89.3,42.5,156.7,6.2,219.8,25.2
			C286.8,45.3,323.6,120.1,301.9,192.2z"/>
		<path class="st2" d="M126.1,137.7l16.4-2.7c-12-19-33.1-31.6-57.2-31.6c-7.6,0-14.9,1.3-21.7,3.6c-26.7,9.1-45.8,34.3-45.8,64
			c0,34.2,25.4,62.5,58.5,67c3,0.4,6,0.6,9.1,0.6c13.6,0,26.3-4,36.9-10.9l-11.2-69C109.3,148.8,116.1,139.3,126.1,137.7z"/>
		<path class="st3" d="M285.3,292.8l-6.6-40.5l-18.1-111c-1.5-8.9-9.9-15-18.8-13.5l-107.7,17.5c-8.9,1.4-15,9.9-13.5,18.8
			l20.1,123.4l4.6,28.2c1.4,8.9,9.9,15,18.8,13.5l107.7-17.5C280.6,310.1,286.7,301.7,285.3,292.8z M234.8,151
			c3-0.5,5.8,1.5,6.3,4.5c0.5,3-1.5,5.8-4.5,6.3c-3,0.5-5.8-1.5-6.3-4.5C229.8,154.3,231.8,151.5,234.8,151z M213.3,154.5
			c3-0.5,5.8,1.5,6.3,4.5c0.5,3-1.5,5.8-4.5,6.3c-3,0.5-5.8-1.5-6.3-4.5C208.3,157.8,210.3,155,213.3,154.5z M148.4,165l26.9-4.4
			c3-0.5,5.8,1.5,6.3,4.5c0.5,3-1.5,5.8-4.5,6.3l-26.9,4.4c-3,0.5-5.8-1.5-6.3-4.5S145.4,165.5,148.4,165z M270,300.8l-107.7,17.5
			c-3,0.5-5.8-1.5-6.3-4.5l-3.7-22.5l-14.8-90.9L256,181.1l13.1,80.6l5.3,32.8C275,297.5,273,300.3,270,300.8z"/>
		<path class="st3" d="M251.5,244c-3.9-24.2-26.9-40.7-51.1-36.8c-24.2,3.9-40.7,26.9-36.8,51.1c2,12.5,9.4,23.6,20.2,30.5
			c0.4,0.4,0.9,0.7,1.5,0.9c6.8,3.9,14.5,5.9,22.3,5.9c2.4,0,4.7-0.2,7.1-0.6C239,291.1,255.5,268.2,251.5,244z M213.3,285.9
			c-19.2,3.1-37.3-9.9-40.4-29.1c-3.1-19.2,9.9-37.3,29.1-40.4c9.3-1.5,18.6,0.7,26.2,6.2c7.6,5.5,12.7,13.6,14.2,22.9
			C245.5,264.7,232.5,282.8,213.3,285.9z"/>
		<path class="st3" d="M179.7,258.9c3.8,14.6,18.2,23.8,32.8,21.4c0.2,0,0.5,0,0.7,0c0.1,0,0.3-0.1,0.4-0.2c0.5-0.1,1.1-0.2,1.6-0.3
			c1-0.2,1.9-0.5,2.8-0.9c0.2-0.1,0.4-0.2,0.6-0.2c0.7-0.3,1.4-0.6,2.1-0.9c0.1-0.1,0.3-0.1,0.4-0.2c0.7-0.4,1.5-0.8,2.2-1.2
			c0,0,0.1-0.1,0.1-0.1c3.9-2.4,7.2-5.8,9.6-9.9l0.9-1.5l-0.1-0.1c0.6-1.2,1.2-2.5,1.6-3.8c0.2-0.3,0.3-0.7,0.3-1.1
			c1.5-5,1.7-10.3,0.3-15.7c-4.1-15.5-20-24.9-35.6-20.8C184.9,227.4,175.6,243.3,179.7,258.9z M212,259l-6,1.6
			c-7.5,2-15.3,0.4-21.5-4.3c-0.4-0.3-0.8-0.5-1.2-0.6c-2.2-12.6,5.6-25.1,18.3-28.4c13.3-3.5,27,4.5,30.5,17.8
			c1.5,5.9,0.8,11.8-1.6,16.9C225,258.5,218.3,257.3,212,259z M185.3,262.1c-0.1-0.2-0.1-0.3-0.2-0.5c0.9,0.5,1.8,0.9,2.7,1.3
			c0,0,0.1,0,0.1,0c0.2-0.1,0.5-0.1,0.6,0.2c0.1,0.1,0.1,0.3,0.2,0.4c0,0,0,0,0,0c1,0.3,2.1,0.6,3.1,1c0,0,0-0.1,0-0.1
			c4.9,1.4,10.1,1.5,15.1,0.1l6-1.6c2.2-0.6,4.4-0.7,6.5-0.5c0,0.1,0,0.2,0,0.3c1.4-0.1,2.8,0.1,4.1,0.6c0,0,0,0,0,0
			c1.6,0.5,3.2,1.3,4.6,2.2c-0.6,0.3-1,0.9-1,1.6c-0.2,0.2-0.3,0.4-0.5,0.6c-0.1,0.1-0.2,0.2-0.3,0.3c-0.4,0.5-0.9,0.9-1.3,1.4
			c-0.1,0.1-0.2,0.2-0.4,0.3c-0.4,0.4-0.9,0.8-1.4,1.2c-0.1,0.1-0.3,0.2-0.4,0.3c-0.5,0.4-1,0.7-1.4,1c-0.2,0.1-0.4,0.2-0.6,0.4
			c-0.5,0.3-1,0.6-1.5,0.8c-0.2,0.1-0.4,0.2-0.6,0.3c-0.5,0.2-1,0.5-1.6,0.7c-0.2,0.1-0.4,0.2-0.6,0.3c-0.7,0.3-1.5,0.5-2.3,0.7
			c-0.8,0.2-1.6,0.4-2.4,0.5c-0.3,0-0.5,0.1-0.8,0.1c-0.5,0.1-1.1,0.1-1.6,0.2c-0.3,0-0.6,0-0.9,0c-0.5,0-1,0-1.4,0
			c-0.3,0-0.7,0-1-0.1c-0.5,0-0.9-0.1-1.4-0.1c-0.3,0-0.7-0.1-1-0.2c-0.4-0.1-0.9-0.2-1.3-0.3c-0.3-0.1-0.6-0.1-1-0.2
			c-0.4-0.1-0.9-0.2-1.3-0.4c-0.3-0.1-0.6-0.2-0.9-0.3c-0.4-0.2-0.9-0.3-1.3-0.5c-0.3-0.1-0.6-0.2-0.8-0.4c-0.5-0.2-0.9-0.5-1.4-0.7
			c-0.2-0.1-0.4-0.2-0.7-0.4c-0.6-0.4-1.3-0.8-1.9-1.2c0,0-0.1,0-0.1-0.1c-0.6-0.4-1.1-0.9-1.7-1.4c-0.2-0.2-0.4-0.4-0.6-0.5
			c-0.4-0.3-0.7-0.7-1.1-1c-0.2-0.2-0.4-0.5-0.6-0.7c-0.3-0.3-0.6-0.7-0.9-1.1c-0.2-0.3-0.4-0.5-0.6-0.8c-0.3-0.4-0.5-0.7-0.8-1.1
			c-0.2-0.3-0.3-0.5-0.5-0.8c-0.2-0.4-0.5-0.8-0.7-1.2C185.6,262.7,185.4,262.4,185.3,262.1z"/>
		<path class="st3" d="M202.6,231.3c7.7-2,15.7,0.5,21,6.5c0.8,0.9,0.7,2.2-0.2,2.9c-0.2,0.2-0.5,0.4-0.8,0.4
			c-0.7,0.2-1.6,0-2.1-0.6c-4.2-4.8-10.6-6.8-16.8-5.2c-1.1,0.3-2.2-0.4-2.5-1.5C200.8,232.8,201.5,231.6,202.6,231.3z"/>
		<path class="st3" d="M224.9,242.7c1.1-0.3,2.3,0.4,2.5,1.5c0.3,1.1-0.4,2.3-1.5,2.5c-1.1,0.3-2.3-0.4-2.5-1.5
			C223.1,244.1,223.8,243,224.9,242.7z"/>
		<circle class="st2" cx="226.1" cy="34.6" r="20.7"/>
		<path class="st2" d="M270.9,153.6l-3.3-20.4c-1.6-10-11.1-16.8-21-15.1l-46.9,7.6c0.1-10.3,4.1-20.6,12-28.4c16-16,41.9-16,57.9,0
			C285,112.8,285.4,137.6,270.9,153.6z"/>
	</g>
</g>
<rect x="797.5" y="158.2" style="fill:none;" width="444.5" height="103.8"/>
<text transform="matrix(1 0 0 1 826.8755 229.1807)" style="font-family:'BeyondTheMountains'; font-size:100px;">Lavadero</text>
<circle class="st3" cx="-466" cy="168" r="46"/>
<circle class="st2" cx="-466" cy="294" r="46"/>
<circle class="st1" cx="-466" cy="422" r="46"/>
</svg>
